<svg id="visual" viewBox="0 0 960 540" width="960" height="540" xmlns="http://www.w3.org/2000/svg" xmlns:xlink="http://www.w3.org/1999/xlink" version="1.1"><rect x="0" y="0" width="960" height="540" fill="#01bb75"></rect><defs><linearGradient id="grad1_0" x1="43.8%" y1="0%" x2="100%" y2="100%"><stop offset="14.444444444444446%" stop-color="#001220" stop-opacity="1"></stop><stop offset="85.55555555555554%" stop-color="#001220" stop-opacity="1"></stop></linearGradient></defs><defs><linearGradient id="grad1_1" x1="43.8%" y1="0%" x2="100%" y2="100%"><stop offset="14.444444444444446%" stop-color="#001220" stop-opacity="1"></stop><stop offset="85.55555555555554%" stop-color="#00273b" stop-opacity="1"></stop></linearGradient></defs><defs><linearGradient id="grad1_2" x1="43.8%" y1="0%" x2="100%" y2="100%"><stop offset="14.444444444444446%" stop-color="#003e54" stop-opacity="1"></stop><stop offset="85.55555555555554%" stop-color="#00273b" stop-opacity="1"></stop></linearGradient></defs><defs><linearGradient id="grad1_3" x1="43.8%" y1="0%" x2="100%" y2="100%"><stop offset="14.444444444444446%" stop-color="#003e54" stop-opacity="1"></stop><stop offset="85.55555555555554%" stop-color="#005669" stop-opacity="1"></stop></linearGradient></defs><defs><linearGradient id="grad1_4" x1="43.8%" y1="0%" x2="100%" y2="100%"><stop offset="14.444444444444446%" stop-color="#006f77" stop-opacity="1"></stop><stop offset="85.55555555555554%" stop-color="#005669" stop-opacity="1"></stop></linearGradient></defs><defs><linearGradient id="grad1_5" x1="43.8%" y1="0%" x2="100%" y2="100%"><stop offset="14.444444444444446%" stop-color="#006f77" stop-opacity="1"></stop><stop offset="85.55555555555554%" stop-color="#00897e" stop-opacity="1"></stop></linearGradient></defs><defs><linearGradient id="grad1_6" x1="43.8%" y1="0%" x2="100%" y2="100%"><stop offset="14.444444444444446%" stop-color="#00a27d" stop-opacity="1"></stop><stop offset="85.55555555555554%" stop-color="#00897e" stop-opacity="1"></stop></linearGradient></defs><defs><linearGradient id="grad1_7" x1="43.8%" y1="0%" x2="100%" y2="100%"><stop offset="14.444444444444446%" stop-color="#00a27d" stop-opacity="1"></stop><stop offset="85.55555555555554%" stop-color="#01bb75" stop-opacity="1"></stop></linearGradient></defs><defs><linearGradient id="grad2_0" x1="0%" y1="0%" x2="56.3%" y2="100%"><stop offset="14.444444444444446%" stop-color="#001220" stop-opacity="1"></stop><stop offset="85.55555555555554%" stop-color="#001220" stop-opacity="1"></stop></linearGradient></defs><defs><linearGradient id="grad2_1" x1="0%" y1="0%" x2="56.3%" y2="100%"><stop offset="14.444444444444446%" stop-color="#00273b" stop-opacity="1"></stop><stop offset="85.55555555555554%" stop-color="#001220" stop-opacity="1"></stop></linearGradient></defs><defs><linearGradient id="grad2_2" x1="0%" y1="0%" x2="56.3%" y2="100%"><stop offset="14.444444444444446%" stop-color="#00273b" stop-opacity="1"></stop><stop offset="85.55555555555554%" stop-color="#003e54" stop-opacity="1"></stop></linearGradient></defs><defs><linearGradient id="grad2_3" x1="0%" y1="0%" x2="56.3%" y2="100%"><stop offset="14.444444444444446%" stop-color="#005669" stop-opacity="1"></stop><stop offset="85.55555555555554%" stop-color="#003e54" stop-opacity="1"></stop></linearGradient></defs><defs><linearGradient id="grad2_4" x1="0%" y1="0%" x2="56.3%" y2="100%"><stop offset="14.444444444444446%" stop-color="#005669" stop-opacity="1"></stop><stop offset="85.55555555555554%" stop-color="#006f77" stop-opacity="1"></stop></linearGradient></defs><defs><linearGradient id="grad2_5" x1="0%" y1="0%" x2="56.3%" y2="100%"><stop offset="14.444444444444446%" stop-color="#00897e" stop-opacity="1"></stop><stop offset="85.55555555555554%" stop-color="#006f77" stop-opacity="1"></stop></linearGradient></defs><defs><linearGradient id="grad2_6" x1="0%" y1="0%" x2="56.3%" y2="100%"><stop offset="14.444444444444446%" stop-color="#00897e" stop-opacity="1"></stop><stop offset="85.55555555555554%" stop-color="#00a27d" stop-opacity="1"></stop></linearGradient></defs><defs><linearGradient id="grad2_7" x1="0%" y1="0%" x2="56.3%" y2="100%"><stop offset="14.444444444444446%" stop-color="#01bb75" stop-opacity="1"></stop><stop offset="85.55555555555554%" stop-color="#00a27d" stop-opacity="1"></stop></linearGradient></defs><g transform="translate(960, 0)"><path d="M0 540C-40.5 517.9 -80.9 495.7 -131.7 491.7C-182.6 487.6 -243.8 501.7 -270 467.7C-296.2 433.7 -287.4 351.6 -309.7 309.7C-332 267.8 -385.4 266.1 -420.9 243C-456.3 219.9 -473.8 175.5 -490.7 131.5C-507.5 87.4 -523.8 43.7 -540 0L0 0Z" fill="#00af7a"></path><path d="M0 472.5C-35.4 453.1 -70.8 433.7 -115.3 430.2C-159.8 426.7 -213.3 438.9 -236.2 409.2C-259.2 379.4 -251.5 307.7 -271 271C-290.5 234.3 -337.3 232.8 -368.3 212.6C-399.3 192.4 -414.6 153.6 -429.4 115C-444.1 76.5 -458.3 38.2 -472.5 0L0 0Z" fill="#00967e"></path><path d="M0 405C-30.3 388.4 -60.7 371.8 -98.8 368.7C-136.9 365.7 -182.8 376.2 -202.5 350.7C-222.2 325.2 -215.6 263.7 -232.3 232.3C-249 200.9 -289.1 199.6 -315.7 182.3C-342.3 164.9 -355.4 131.7 -368 98.6C-380.7 65.6 -392.8 32.8 -405 0L0 0Z" fill="#007c7b"></path><path d="M0 337.5C-25.3 323.7 -50.6 309.8 -82.3 307.3C-114.1 304.8 -152.4 313.5 -168.7 292.3C-185.1 271 -179.6 219.8 -193.6 193.6C-207.5 167.4 -240.9 166.3 -263.1 151.9C-285.2 137.5 -296.1 109.7 -306.7 82.2C-317.2 54.6 -327.4 27.3 -337.5 0L0 0Z" fill="#006271"></path><path d="M0 270C-20.2 258.9 -40.5 247.9 -65.9 245.8C-91.3 243.8 -121.9 250.8 -135 233.8C-148.1 216.8 -143.7 175.8 -154.9 154.9C-166 133.9 -192.7 133 -210.4 121.5C-228.2 110 -236.9 87.8 -245.3 65.7C-253.8 43.7 -261.9 21.9 -270 0L0 0Z" fill="#004a5f"></path><path d="M0 202.5C-15.2 194.2 -30.3 185.9 -49.4 184.4C-68.5 182.9 -91.4 188.1 -101.2 175.4C-111.1 162.6 -107.8 131.9 -116.1 116.1C-124.5 100.4 -144.5 99.8 -157.8 91.1C-171.1 82.5 -177.7 65.8 -184 49.3C-190.3 32.8 -196.4 16.4 -202.5 0L0 0Z" fill="#003248"></path><path d="M0 135C-10.1 129.5 -20.2 123.9 -32.9 122.9C-45.6 121.9 -60.9 125.4 -67.5 116.9C-74.1 108.4 -71.9 87.9 -77.4 77.4C-83 67 -96.4 66.5 -105.2 60.8C-114.1 55 -118.5 43.9 -122.7 32.9C-126.9 21.9 -130.9 10.9 -135 0L0 0Z" fill="#001d2d"></path><path d="M0 67.5C-5.1 64.7 -10.1 62 -16.5 61.5C-22.8 61 -30.5 62.7 -33.7 58.5C-37 54.2 -35.9 44 -38.7 38.7C-41.5 33.5 -48.2 33.3 -52.6 30.4C-57 27.5 -59.2 21.9 -61.3 16.4C-63.4 10.9 -65.5 5.5 -67.5 0L0 0Z" fill="#001220"></path></g><g transform="translate(0, 540)"><path d="M0 -540C52.4 -547.8 104.8 -555.5 139.8 -521.6C174.7 -487.7 192.2 -412.1 211 -365.5C229.8 -318.8 249.8 -301 289.2 -289.2C328.7 -277.4 387.6 -271.4 427.8 -247C468 -222.6 489.6 -179.6 505.2 -135.4C520.8 -91.1 530.4 -45.6 540 0L0 0Z" fill="#00af7a"></path><path d="M0 -472.5C45.9 -479.3 91.7 -486.1 122.3 -456.4C152.9 -426.7 168.2 -360.6 184.6 -319.8C201 -279 218.5 -263.4 253.1 -253.1C287.6 -242.7 339.1 -237.5 374.3 -216.1C409.5 -194.7 428.4 -157.2 442 -118.4C455.7 -79.7 464.1 -39.9 472.5 0L0 0Z" fill="#00967e"></path><path d="M0 -405C39.3 -410.8 78.6 -416.6 104.8 -391.2C131 -365.8 144.2 -309.1 158.2 -274.1C172.3 -239.1 187.3 -225.8 216.9 -216.9C246.5 -208 290.7 -203.6 320.9 -185.3C351 -166.9 367.2 -134.7 378.9 -101.5C390.6 -68.3 397.8 -34.2 405 0L0 0Z" fill="#007c7b"></path><path d="M0 -337.5C32.8 -342.3 65.5 -347.2 87.4 -326C109.2 -304.8 120.2 -257.6 131.9 -228.4C143.6 -199.3 156.1 -188.2 180.8 -180.8C205.4 -173.4 242.2 -169.6 267.4 -154.4C292.5 -139.1 306 -112.3 315.7 -84.6C325.5 -56.9 331.5 -28.5 337.5 0L0 0Z" fill="#006271"></path><path d="M0 -270C26.2 -273.9 52.4 -277.8 69.9 -260.8C87.4 -243.8 96.1 -206.1 105.5 -182.7C114.9 -159.4 124.9 -150.5 144.6 -144.6C164.3 -138.7 193.8 -135.7 213.9 -123.5C234 -111.3 244.8 -89.8 252.6 -67.7C260.4 -45.6 265.2 -22.8 270 0L0 0Z" fill="#004a5f"></path><path d="M0 -202.5C19.7 -205.4 39.3 -208.3 52.4 -195.6C65.5 -182.9 72.1 -154.5 79.1 -137C86.2 -119.6 93.7 -112.9 108.5 -108.5C123.2 -104 145.3 -101.8 160.4 -92.6C175.5 -83.5 183.6 -67.4 189.4 -50.8C195.3 -34.2 198.9 -17.1 202.5 0L0 0Z" fill="#003248"></path><path d="M0 -135C13.1 -136.9 26.2 -138.9 34.9 -130.4C43.7 -121.9 48.1 -103 52.7 -91.4C57.4 -79.7 62.4 -75.3 72.3 -72.3C82.2 -69.3 96.9 -67.9 107 -61.8C117 -55.6 122.4 -44.9 126.3 -33.8C130.2 -22.8 132.6 -11.4 135 0L0 0Z" fill="#001d2d"></path><path d="M0 -67.5C6.6 -68.5 13.1 -69.4 17.5 -65.2C21.8 -61 24 -51.5 26.4 -45.7C28.7 -39.9 31.2 -37.6 36.2 -36.2C41.1 -34.7 48.4 -33.9 53.5 -30.9C58.5 -27.8 61.2 -22.5 63.1 -16.9C65.1 -11.4 66.3 -5.7 67.5 0L0 0Z" fill="#001220"></path></g></svg>